<svg width="50" height="67" viewBox="0 0 50 67" fill="none" xmlns="http://www.w3.org/2000/svg">
<path d="M49.76 58.822V67H2.478V60.608L29.268 34.758C32.5267 31.6247 34.72 28.93 35.848 26.674C36.976 24.3553 37.54 22.0367 37.54 19.718C37.54 16.2713 36.318 13.608 33.874 11.728C31.4927 9.78533 28.046 8.814 23.534 8.814C16.2647 8.814 10.656 11.1953 6.708 15.958L0.316 10.412C2.88533 7.27866 6.238 4.83467 10.374 3.08C14.5727 1.32533 19.2413 0.448 24.38 0.448C31.2733 0.448 36.7567 2.10867 40.83 5.43C44.9033 8.68866 46.94 13.138 46.94 18.778C46.94 22.2873 46.188 25.6087 44.684 28.742C43.18 31.8753 40.3287 35.4473 36.13 39.458L16.014 58.822H49.76Z" fill="#EFEBDE"/>
</svg>
