<svg width="50" height="67" viewBox="0 0 50 67" fill="none" xmlns="http://www.w3.org/2000/svg">
<path d="M29.704 27.836C36.1587 28.4627 41.078 30.468 44.462 33.852C47.846 37.1733 49.538 41.4347 49.538 46.636C49.538 50.396 48.598 53.8113 46.718 56.882C44.838 59.89 42.018 62.3027 38.258 64.12C34.5607 65.8747 30.0173 66.752 24.628 66.752C19.928 66.752 15.416 66.0627 11.092 64.684C6.768 63.2427 3.22733 61.2687 0.47 58.762L4.794 51.336C7.05 53.4667 9.93267 55.19 13.442 56.506C16.9513 57.7593 20.68 58.386 24.628 58.386C29.516 58.386 33.3073 57.352 36.002 55.284C38.7593 53.216 40.138 50.3647 40.138 46.73C40.138 43.0953 38.7907 40.2753 36.096 38.27C33.4013 36.2647 29.328 35.262 23.876 35.262H18.612V28.682L35.156 8.378H3.478V0.199996H46.906V6.592L29.704 27.836Z" fill="#EFEBDE"/>
</svg>
