<svg width="50" height="67" viewBox="0 0 50 67" fill="none" xmlns="http://www.w3.org/2000/svg">
<path d="M22.312 26.426C31.712 26.426 38.6053 28.212 42.992 31.784C47.4413 35.2933 49.666 40.1187 49.666 46.26C49.666 50.1453 48.726 53.6547 46.846 56.788C45.0287 59.8587 42.24 62.3027 38.48 64.12C34.7827 65.8747 30.208 66.752 24.756 66.752C20.1187 66.752 15.638 66.0627 11.314 64.684C6.99 63.2427 3.418 61.2687 0.598 58.762L4.922 51.336C7.178 53.4667 10.0607 55.19 13.57 56.506C17.0793 57.7593 20.7767 58.386 24.662 58.386C29.6127 58.386 33.4353 57.352 36.13 55.284C38.8873 53.1533 40.266 50.2707 40.266 46.636C40.266 42.688 38.762 39.7113 35.754 37.706C32.746 35.638 27.6073 34.604 20.338 34.604H5.392L8.87 0.199996H46V8.378H16.766L14.98 26.426H22.312Z" fill="#EFEBDE"/>
</svg>
