<svg width="52" height="68" viewBox="0 0 52 68" fill="none" xmlns="http://www.w3.org/2000/svg">
<path d="M28.9 27.05C33.224 27.05 37.078 27.8647 40.462 29.494C43.9087 31.1233 46.6033 33.4733 48.546 36.544C50.4887 39.552 51.46 43.03 51.46 46.978C51.46 51.114 50.426 54.7487 48.358 57.882C46.3527 61.0153 43.564 63.4593 39.992 65.214C36.4827 66.906 32.5347 67.752 28.148 67.752C19.312 67.752 12.4813 64.9007 7.656 59.198C2.89333 53.4953 0.512 45.4113 0.512 34.946C0.512 27.614 1.79667 21.3787 4.366 16.24C6.998 11.0387 10.6327 7.122 15.27 4.49C19.97 1.79533 25.422 0.448 31.626 0.448C34.822 0.448 37.83 0.792666 40.65 1.482C43.47 2.10866 45.914 3.04866 47.982 4.30199L44.41 11.634C41.2767 9.566 37.078 8.532 31.814 8.532C24.9833 8.532 19.6253 10.6627 15.74 14.924C11.8547 19.1227 9.912 25.264 9.912 33.348C9.912 34.3507 9.94333 35.134 10.006 35.698C11.886 32.878 14.4553 30.7473 17.714 29.306C21.0353 27.802 24.764 27.05 28.9 27.05ZM27.772 60.138C32.096 60.138 35.6053 58.9787 38.3 56.66C40.9947 54.3413 42.342 51.2393 42.342 47.354C42.342 43.4687 40.9633 40.398 38.206 38.142C35.5113 35.8233 31.8767 34.664 27.302 34.664C24.3567 34.664 21.7247 35.228 19.406 36.356C17.15 37.484 15.364 39.0193 14.048 40.962C12.7947 42.9047 12.168 45.0667 12.168 47.448C12.168 49.7667 12.7633 51.8973 13.954 53.84C15.2073 55.72 16.9933 57.2553 19.312 58.446C21.6933 59.574 24.5133 60.138 27.772 60.138Z" fill="#EFEBDE"/>
</svg>
