<svg width="40" height="41" viewBox="0 0 40 41" fill="none" xmlns="http://www.w3.org/2000/svg">
<path d="M19.5913 8.33398C13.0766 8.33398 7.78015 13.6291 7.78015 20.1438C7.78015 26.6509 13.0766 31.9544 19.5913 31.9544C26.1073 31.9544 31.4024 26.6504 31.4024 20.1438C31.4024 13.6291 26.1073 8.33398 19.5913 8.33398ZM19.5913 29.9495C14.1899 29.9495 9.78548 25.5553 9.78548 20.1438C9.78548 14.7424 14.181 10.3389 19.5913 10.3389C25.0015 10.3389 29.397 14.742 29.397 20.1438C29.397 25.5464 24.9939 29.9495 19.5913 29.9495Z" fill="black"/>
<path d="M38.5474 21.7653L37.8354 20.7831C37.5003 20.3244 37.4918 19.6951 37.8278 19.2284L38.5229 18.2378C39.0709 17.46 39.2674 16.4778 39.0474 15.5444C38.8261 14.6111 38.2207 13.8182 37.3772 13.368L36.3127 12.7951C35.8047 12.5249 35.5358 11.9684 35.6256 11.4031L35.8296 10.2084C35.9852 9.26666 35.7318 8.30088 35.1345 7.55644C34.5292 6.8111 33.6358 6.36177 32.6874 6.32044L31.4754 6.27155C30.9025 6.24666 30.4105 5.86133 30.2558 5.31333L29.9043 4.15866C29.495 2.74266 28.1767 1.75288 26.6954 1.75288C26.2452 1.75288 25.795 1.8431 25.3772 2.0231L24.2638 2.49733C23.7483 2.71866 23.1181 2.57999 22.7501 2.16222L21.9398 1.26177C21.3101 0.557326 20.4021 0.148438 19.4612 0.148438C18.4945 0.148438 17.5785 0.566215 16.9394 1.29422L16.1536 2.2111C15.7856 2.63644 15.163 2.78399 14.6398 2.57155L13.5181 2.11377C13.1092 1.94977 12.6838 1.85999 12.2496 1.85999C10.7523 1.85999 9.42607 2.8671 9.03229 4.31555L8.71318 5.48533C8.56562 6.03421 8.07495 6.4271 7.50206 6.45955L6.29851 6.53333C5.34918 6.58221 4.45718 7.04888 3.86784 7.80177C3.27762 8.55466 3.04118 9.52933 3.21229 10.4622L3.43362 11.6493C3.53984 12.2138 3.26962 12.7791 2.77051 13.0569L1.71496 13.6462C0.8794 14.1129 0.282511 14.9147 0.0776221 15.848C-0.127267 16.7813 0.0776222 17.7631 0.642955 18.5324L1.35496 19.5067C1.69007 19.9658 1.69896 20.5951 1.36251 21.0613L0.666955 22.052C0.118955 22.8302 -0.0774889 23.812 0.142956 24.7453C0.364289 25.6787 0.969622 26.472 1.81273 26.9218L2.87718 27.4947C3.38518 27.7649 3.65407 28.3213 3.56384 28.8867L3.35984 30.0813C3.20473 31.0218 3.45762 31.9889 4.0554 32.7333C4.66073 33.4787 5.55407 33.928 6.50207 33.9689L7.71407 34.0178C8.28695 34.0427 8.77851 34.4271 8.93362 34.9755L9.26873 36.1378C9.67762 37.5538 10.9963 38.5444 12.4772 38.5444C12.9274 38.5444 13.3776 38.4547 13.7954 38.2742L14.9074 37.7995C15.4238 37.5791 16.0545 37.7178 16.4221 38.1355L17.2327 39.0351C17.8652 39.7396 18.7732 40.1484 19.7141 40.1484C20.6807 40.1484 21.5967 39.7315 22.2358 39.0027L23.0287 38.0858C23.3976 37.6604 24.0194 37.5129 24.5434 37.7253L25.6643 38.184C26.0732 38.3475 26.4998 38.4378 26.9336 38.4378C28.431 38.4378 29.7572 37.4307 30.1496 35.9822L30.4687 34.8115C30.6163 34.2635 31.1078 33.8711 31.6807 33.8373L32.8918 33.7644C33.8501 33.7071 34.7336 33.248 35.3225 32.4955C35.9127 31.7422 36.1492 30.7769 35.9781 29.836L35.7567 28.6489C35.6505 28.0835 35.9207 27.5191 36.4198 27.2413L37.4754 26.6511C38.311 26.1849 38.9078 25.3827 39.1132 24.4498C39.3181 23.5164 39.1132 22.5347 38.5474 21.7653ZM37.1563 24.0155C37.075 24.3924 36.8372 24.7035 36.5021 24.8924L35.4465 25.4818C34.1936 26.1769 33.5229 27.5929 33.7843 29.0004L34.0056 30.1875C34.0794 30.5729 33.9807 30.9493 33.7443 31.252C33.5065 31.5551 33.1625 31.7351 32.7701 31.7591L31.5665 31.8329C30.1341 31.9155 28.9145 32.8973 28.5385 34.2809L28.2194 35.4431C28.0638 36.0235 27.5314 36.4249 26.9345 36.4249C26.7616 36.4249 26.5905 36.3924 26.4265 36.3271L25.3047 35.8684C24.8954 35.7044 24.4701 35.6142 24.0363 35.6142C23.0705 35.6142 22.1541 36.032 21.5158 36.76L20.7216 37.6698C20.4678 37.9635 20.1074 38.1271 19.7145 38.1271C19.3305 38.1271 18.9776 37.972 18.7247 37.6858L17.9141 36.7853C17.2838 36.0813 16.3754 35.672 15.4261 35.672C14.967 35.672 14.5256 35.7618 14.1078 35.9422L12.9945 36.416C12.823 36.4898 12.6518 36.5235 12.4714 36.5235C11.8812 36.5235 11.3581 36.1293 11.1941 35.5653L10.859 34.4031C10.4576 33.0284 9.22918 32.0618 7.79673 31.9969L6.58562 31.948C6.20029 31.932 5.84873 31.7591 5.6114 31.4564C5.36607 31.1538 5.26873 30.7778 5.33362 30.4009L5.53762 29.2062C5.7754 27.7898 5.08829 26.3902 3.81895 25.7111L2.7554 25.1382C2.4114 24.9582 2.17362 24.6467 2.08384 24.2702C1.99407 23.8938 2.0674 23.5093 2.29673 23.1982L2.99229 22.2075C3.81895 21.0382 3.8114 19.4747 2.95984 18.3124L2.24784 17.3382C2.01896 17.0267 1.93629 16.6427 2.02651 16.2662C2.10918 15.8898 2.34651 15.5782 2.68207 15.3907L3.73762 14.8013C4.98962 14.1058 5.66162 12.6898 5.39896 11.2813L5.18607 10.1031C5.11229 9.71777 5.21095 9.34133 5.4474 9.03866C5.68518 8.73599 6.02918 8.55599 6.42162 8.53199L7.62518 8.45822C9.05762 8.37555 10.2683 7.39377 10.6536 6.01021L10.9727 4.84044C11.1278 4.25866 11.6607 3.85733 12.2576 3.85733C12.4301 3.85733 12.6016 3.8911 12.7656 3.95599L13.8874 4.41377C14.2963 4.57777 14.7216 4.66755 15.1558 4.66755C16.1216 4.66755 17.0385 4.24977 17.6763 3.52177L18.4705 2.61377C18.7243 2.31866 19.0847 2.15466 19.4776 2.15466C19.8616 2.15466 20.2145 2.3111 20.4674 2.59733L21.2776 3.49688C21.9083 4.20088 22.8163 4.61022 23.7661 4.61022C24.2247 4.61022 24.6665 4.51999 25.0843 4.33999L26.1976 3.86577C26.3692 3.79199 26.5403 3.75955 26.7207 3.75955C27.311 3.75955 27.8341 4.15244 27.9981 4.71644L28.3332 5.87955C28.7345 7.25422 29.963 8.21999 31.3954 8.28533L32.6065 8.3351C32.9918 8.35155 33.3434 8.52266 33.5887 8.82577C33.835 9.12844 33.9323 9.50488 33.8674 9.88133L33.6625 11.0769C33.4247 12.4929 34.1127 13.8915 35.3812 14.572L36.4456 15.1449C36.7896 15.324 37.0265 15.6355 37.1163 16.012C37.2065 16.3884 37.1336 16.7738 36.9123 17.084L36.2172 18.0747C35.3905 19.2453 35.3976 20.808 36.2496 21.9715L36.9616 22.9444C37.1563 23.2551 37.239 23.6391 37.1563 24.0155Z" fill="black"/>
<path d="M22.4971 16.8955L18.11 21.2573L16.6851 19.8248C16.2922 19.4319 15.662 19.4319 15.2691 19.8248C14.8762 20.2177 14.8762 20.8479 15.2616 21.2413L17.398 23.3861C17.5856 23.5737 17.8398 23.6804 18.11 23.6804C18.3714 23.6804 18.6256 23.5737 18.814 23.3861L23.9131 18.319C24.306 17.9262 24.306 17.2959 23.922 16.903C23.5291 16.5102 22.89 16.5102 22.4971 16.8955Z" fill="black"/>
</svg>
