<svg width="37" height="41" viewBox="0 0 37 41" fill="none" xmlns="http://www.w3.org/2000/svg">
<path d="M36.0088 14.9964L34.2596 12.6132C33.8665 12.0795 33.3001 11.6991 32.6574 11.5371C32.0146 11.3752 31.3356 11.4417 30.7365 11.7253L24.3312 2.06672C24.2685 1.95084 24.1997 1.83835 24.1251 1.72973L24.1154 1.71546C23.8399 1.32019 23.4891 0.983208 23.0831 0.723857C22.6771 0.464505 22.2238 0.287888 21.7494 0.204142C21.2749 0.120396 20.7886 0.131169 20.3184 0.235844C19.8481 0.340519 19.4031 0.537034 19.009 0.814112L2.29154 12.5594C1.91883 12.7616 1.57727 13.0165 1.27743 13.3162C0.865428 13.7282 0.540151 14.2186 0.320814 14.7584C0.101477 15.2982 -0.00747294 15.8764 0.000397979 16.459C0.0082689 17.0416 0.132801 17.6167 0.366641 18.1504C0.60048 18.684 0.938885 19.1654 1.36187 19.5661L12.9738 30.5671V32.5805H11.8927C11.0328 32.5814 10.2084 32.9234 9.60031 33.5315C8.99225 34.1395 8.65023 34.964 8.64929 35.8239V36.905C8.65023 37.7649 8.99225 38.5894 9.60031 39.1974C10.2084 39.8055 11.0328 40.1475 11.8927 40.1484H24.8664C25.7263 40.1475 26.5507 39.8055 27.1588 39.1974C27.7668 38.5894 28.1088 37.7649 28.1098 36.905V35.8239C28.1088 34.964 27.7668 34.1395 27.1588 33.5315C26.5507 32.9234 25.7263 32.5814 24.8664 32.5805H23.7852V29.337C23.7846 28.5125 23.5951 27.6991 23.231 26.9593C22.867 26.2195 22.3383 25.573 21.6854 25.0694L21.6889 25.0654L7.13818 13.0374C6.8537 12.8036 6.54101 12.6065 6.20743 12.4506L20.252 2.58307C20.5763 2.3552 20.9776 2.26516 21.3682 2.3327C21.7587 2.40023 22.1065 2.61983 22.3354 2.94336L22.3422 2.95342C22.5658 3.27138 22.6564 3.66406 22.5947 4.04783C22.533 4.43161 22.324 4.77613 22.012 5.00801L11.2445 13.0775C11.1308 13.1626 11.0351 13.2693 10.9627 13.3914C10.8903 13.5135 10.8427 13.6487 10.8225 13.7893C10.8024 13.9298 10.8101 14.0729 10.8453 14.2105C10.8804 14.3481 10.9423 14.4773 11.0275 14.591C11.1994 14.8204 11.4554 14.9722 11.7393 15.0129C11.8798 15.0331 12.0229 15.0253 12.1605 14.9902C12.2981 14.955 12.4273 14.8931 12.541 14.8079L19.8243 9.34954L25.0984 15.8616C24.6472 16.3479 24.3796 16.9762 24.3416 17.6385C24.3037 18.3007 24.4977 18.9555 24.8904 19.4901L26.6394 21.8734C26.8091 22.1045 27.0637 22.2588 27.3471 22.3022C27.6306 22.3457 27.9197 22.2748 28.1508 22.1051C28.382 21.9354 28.5363 21.6808 28.5797 21.3974C28.6232 21.114 28.5523 20.8249 28.3826 20.5937L26.6335 18.2105C26.5249 18.0624 26.4795 17.8773 26.5074 17.6958C26.5352 17.5143 26.6341 17.3513 26.7821 17.2426L31.5485 13.7442C31.6967 13.6358 31.8818 13.5905 32.0632 13.6184C32.2447 13.6462 32.4077 13.7449 32.5165 13.8928L34.2656 16.276C34.3497 16.3905 34.4554 16.4873 34.5768 16.5609C34.6983 16.6344 34.833 16.6834 34.9733 16.7049C35.1137 16.7264 35.2569 16.7201 35.3948 16.6863C35.5327 16.6524 35.6626 16.5918 35.777 16.5078C35.8915 16.4237 35.9883 16.318 36.0618 16.1966C36.1354 16.0751 36.1844 15.9404 36.2059 15.8001C36.2274 15.6597 36.2211 15.5165 36.1873 15.3786C36.1534 15.2407 36.0928 15.1108 36.0088 14.9964ZM25.9475 35.8239V36.905C25.9472 37.1917 25.8332 37.4665 25.6305 37.6692C25.4278 37.8719 25.153 37.9859 24.8664 37.9862H11.8927C11.6061 37.9859 11.3312 37.8719 11.1285 37.6692C10.9259 37.4665 10.8119 37.1917 10.8116 36.905V35.8239C10.8119 35.5372 10.9259 35.2624 11.1285 35.0597C11.3312 34.857 11.6061 34.743 11.8927 34.7427H24.8664C25.153 34.743 25.4278 34.857 25.6305 35.0597C25.8332 35.2624 25.9472 35.5372 25.9475 35.8239ZM15.1361 32.5805V29.337C15.1361 28.4768 15.4778 27.6519 16.0861 27.0436C16.6944 26.4353 17.5193 26.0936 18.3795 26.0936C19.2397 26.0936 20.0647 26.4353 20.673 27.0436C21.2812 27.6519 21.623 28.4768 21.623 29.337V32.5805H15.1361ZM17.112 24.0876C16.1922 24.3111 15.347 24.7717 14.6605 25.4234C13.9739 26.0751 13.4701 26.8952 13.199 27.8022L2.84898 17.9967C2.43495 17.6046 2.18943 17.067 2.16422 16.4973C2.13901 15.9277 2.33608 15.3705 2.71384 14.9433C3.09161 14.5162 3.62054 14.2525 4.18902 14.2079C4.75751 14.1632 5.32109 14.3412 5.76086 14.7042L17.112 24.0876ZM23.3086 6.73843C23.6601 6.4745 23.9615 6.14964 24.1983 5.7793L28.9611 12.961L26.8103 14.5394L21.5559 8.05174L23.3086 6.73843Z" fill="black"/>
<path d="M18.3796 30.4181C18.9767 30.4181 19.4607 29.9341 19.4607 29.337C19.4607 28.7399 18.9767 28.2559 18.3796 28.2559C17.7825 28.2559 17.2985 28.7399 17.2985 29.337C17.2985 29.9341 17.7825 30.4181 18.3796 30.4181Z" fill="black"/>
</svg>
