<svg width="43" height="53" viewBox="0 0 43 53" fill="none" xmlns="http://www.w3.org/2000/svg">
<path d="M11.7131 24.248H14.1399V17.5967C13.8209 17.6696 13.5133 17.7653 13.217 17.8838C12.9254 18.0023 12.6588 18.1458 12.4172 18.3145L11.3508 16.79C11.7428 16.5439 12.1415 16.3366 12.5471 16.168C12.9573 15.9948 13.3697 15.8581 13.7844 15.7578C14.2037 15.653 14.623 15.5778 15.0422 15.5322C15.4661 15.4867 15.8876 15.4639 16.3069 15.4639L16.3 15.4775H16.3069V24.248H18.6243V26.1484H11.7131V24.248ZM20.0803 21.9648L26.3284 15.4639H28.4954V21.9648H30.7991V23.8652H28.4954V26.1484H26.3284V23.8652H20.0667L20.0803 21.9648ZM26.3284 21.9648V18.2051L22.678 21.9648H26.3284Z" fill="black"/>
<circle cx="21.092" cy="21.1484" r="19" stroke="black" stroke-width="2"/>
<path d="M28.5921 8.14843C39.0921 14.1484 39.0921 31.1484 24.0921 36.1484M18.0921 36.1484C2.09201 31.1485 3.59206 12.1485 14.592 8.14845" stroke="black" stroke-width="2"/>
<circle cx="21.092" cy="36.1484" r="1" fill="black"/>
</svg>
