<svg width="30" height="31" viewBox="0 0 30 31" fill="none" xmlns="http://www.w3.org/2000/svg">
<g clip-path="url(#clip0_34_11206)">
<path d="M0 4.38867C0 4.03867 0.275 3.76367 0.625 3.76367H23.125C23.475 3.76367 23.75 4.03867 23.75 4.38867C23.75 4.73867 23.475 5.01367 23.125 5.01367H0.625C0.275 5.01367 0 4.73867 0 4.38867ZM23.125 23.7637H0.625C0.275 23.7637 0 24.0387 0 24.3887C0 24.7387 0.275 25.0137 0.625 25.0137H23.125C23.475 25.0137 23.75 24.7387 23.75 24.3887C23.75 24.0387 23.475 23.7637 23.125 23.7637ZM29.375 13.7637H6.875C6.525 13.7637 6.25 14.0387 6.25 14.3887C6.25 14.7387 6.525 15.0137 6.875 15.0137H29.375C29.725 15.0137 30 14.7387 30 14.3887C30 14.0387 29.725 13.7637 29.375 13.7637Z" fill="#D54A6B"/>
</g>
<defs>
<clipPath id="clip0_34_11206">
<rect width="30" height="30" fill="white" transform="translate(0 0.0136719)"/>
</clipPath>
</defs>
</svg>
