<svg width="25" height="30" viewBox="0 0 25 30" fill="none" xmlns="http://www.w3.org/2000/svg">
<path d="M24.2825 20.7583C24.2825 21.061 24.227 21.4541 24.1158 21.9374C24.0046 22.4235 23.8879 22.8069 23.7657 23.0874C23.5295 23.6458 22.8473 24.2374 21.7191 24.8624C20.6715 25.4291 19.6336 25.7124 18.6055 25.7124C18.3054 25.7124 18.0094 25.693 17.7176 25.6541C17.4286 25.6152 17.1077 25.5458 16.7548 25.4458C16.4047 25.3458 16.1421 25.2652 15.967 25.2041C15.7947 25.143 15.4849 25.0291 15.0375 24.8624C14.5929 24.693 14.3192 24.5916 14.2164 24.5583C13.1243 24.1694 12.1476 23.7069 11.2861 23.1708C9.86896 22.2874 8.3962 21.0819 6.86787 19.5541C5.33675 18.0235 4.13076 16.5499 3.24988 15.1333C2.71358 14.2749 2.24952 13.2985 1.85771 12.2041C1.82437 12.1041 1.72433 11.8305 1.5576 11.3833C1.39087 10.936 1.27694 10.6263 1.21581 10.4541C1.1519 10.2819 1.06992 10.0194 0.969889 9.6666C0.869852 9.3166 0.800383 8.99577 0.76148 8.7041C0.722577 8.41521 0.703125 8.11938 0.703125 7.8166C0.703125 6.7916 0.987951 5.7541 1.5576 4.7041C2.18283 3.57632 2.77471 2.89577 3.33325 2.66243C3.61113 2.54021 3.99321 2.42216 4.4795 2.30827C4.96579 2.19716 5.35898 2.1416 5.65909 2.1416C5.81748 2.1416 5.93558 2.15827 6.01339 2.1916C6.21346 2.25827 6.5094 2.68327 6.90121 3.4666C7.02348 3.67771 7.1902 3.9791 7.40139 4.37077C7.61258 4.75966 7.80848 5.11382 7.98911 5.43327C8.16695 5.74993 8.33923 6.04855 8.50596 6.3291C8.53931 6.37355 8.63795 6.51244 8.8019 6.74577C8.96307 6.98188 9.08256 7.18049 9.16037 7.3416C9.23817 7.50271 9.27707 7.66105 9.27707 7.8166C9.27707 8.0416 9.11868 8.32077 8.8019 8.6541C8.48234 8.99021 8.13638 9.29716 7.76402 9.57493C7.38889 9.85549 7.04154 10.1513 6.72198 10.4624C6.4052 10.7763 6.24681 11.0333 6.24681 11.2333C6.24681 11.3333 6.27459 11.4583 6.33017 11.6083C6.38575 11.761 6.43299 11.8763 6.47189 11.9541C6.51079 12.0319 6.5886 12.1652 6.70531 12.3541C6.82479 12.543 6.8901 12.6499 6.90121 12.6749C7.74874 14.2027 8.71993 15.5138 9.81477 16.6083C10.9068 17.6999 12.2184 18.6708 13.7495 19.5208C13.7718 19.5319 13.8774 19.5958 14.0663 19.7124C14.2581 19.8291 14.3928 19.9069 14.4706 19.9458C14.5484 19.9847 14.6624 20.0319 14.8124 20.0874C14.9625 20.1458 15.0875 20.1749 15.1876 20.1749C15.3904 20.1749 15.6474 20.0152 15.9587 19.6958C16.2727 19.3763 16.5686 19.0305 16.8465 18.6583C17.1271 18.2833 17.4342 17.9374 17.7677 17.6208C18.1039 17.3013 18.3832 17.1416 18.6055 17.1416C18.7611 17.1416 18.9209 17.1805 19.0848 17.2583C19.246 17.3388 19.4433 17.4597 19.6767 17.6208C19.9129 17.7819 20.0532 17.8791 20.0977 17.9124C20.3756 18.0791 20.6743 18.2527 20.9938 18.4333C21.3106 18.611 21.6649 18.8055 22.0567 19.0166C22.4457 19.2305 22.7472 19.3985 22.9612 19.5208C23.7421 19.9097 24.1658 20.2055 24.2325 20.4083C24.2659 20.486 24.2825 20.6027 24.2825 20.7583Z" fill="white"/>
</svg>
