<svg width="45" height="45" viewBox="0 0 45 45" fill="none" xmlns="http://www.w3.org/2000/svg">
<path d="M26.0938 23L37.7188 34.625C38 34.9062 38 35.375 37.7188 35.75L35.6562 37.8125C35.2812 38.0938 34.8125 38.0938 34.5312 37.8125L32.5625 35.8438L23 26.1875L11.375 37.8125C11.0938 38.0938 10.625 38.0938 10.25 37.8125L8.1875 35.75C7.90625 35.375 7.90625 34.9062 8.1875 34.625L19.8125 23L8.1875 11.4688C7.90625 11.1875 7.90625 10.7188 8.1875 10.3438L10.25 8.28125C10.625 8 11.0938 8 11.375 8.28125L23 19.9062L34.5312 8.28125C34.8125 8 35.2812 8 35.6562 8.28125L37.7188 10.3438C38 10.7188 38 11.1875 37.7188 11.4688L35.75 13.4375L26.0938 23Z" fill="#ED1C24"/>
</svg>
