<svg width="57" height="57" viewBox="0 0 57 57" fill="none" xmlns="http://www.w3.org/2000/svg">
<path d="M33.3101 46.1772H14.0696C13.6047 46.1772 13.2278 45.8003 13.2278 45.3355V34.5127C13.2278 34.0478 13.6047 33.6709 14.0696 33.6709H33.3101C33.775 33.6709 34.1518 34.0478 34.1518 34.5127V45.3355C34.1518 45.8003 33.775 46.1772 33.3101 46.1772ZM14.9113 44.4937H32.4683V35.3544H14.9113V44.4937Z" fill="black"/>
<path d="M21.2847 57.0005H16.4746C16.0097 57.0005 15.6328 56.6236 15.6328 56.1587V45.3359C15.6328 44.871 16.0097 44.4941 16.4746 44.4941H21.2847C21.7496 44.4941 22.1265 44.871 22.1265 45.3359V56.1587C22.1265 56.6236 21.7496 57.0005 21.2847 57.0005ZM17.3164 55.3169H20.4429V46.1777H17.3164V55.3169Z" fill="black"/>
<path d="M56.1582 56.9999H0.841772C0.376873 56.9999 0 56.6231 0 56.1582C0 55.6933 0.376873 55.3164 0.841772 55.3164H56.1582C56.6231 55.3164 57 55.6933 57 56.1582C57 56.6231 56.6231 56.9999 56.1582 56.9999Z" fill="black"/>
<path d="M51.3479 26.9368H38.1201C37.6552 26.9368 37.2783 26.5599 37.2783 26.095V12.8672C37.2783 12.4023 37.6552 12.0254 38.1201 12.0254H51.3479C51.8128 12.0254 52.1897 12.4023 52.1897 12.8672V26.095C52.1897 26.5599 51.8128 26.9368 51.3479 26.9368ZM38.9619 25.2532H50.5062V13.7089H38.9619V25.2532Z" fill="black"/>
<path d="M51.3479 41.3668H38.1201C37.6552 41.3668 37.2783 40.99 37.2783 40.5251V26.0947C37.2783 25.6298 37.6552 25.2529 38.1201 25.2529H51.3479C51.8128 25.2529 52.1897 25.6298 52.1897 26.0947V40.5251C52.1897 40.99 51.8128 41.3668 51.3479 41.3668ZM38.9619 39.6833H50.5062V26.9365H38.9619V39.6833Z" fill="black"/>
<path d="M33.3103 35.3544H20.0825C19.6176 35.3544 19.2407 34.9775 19.2407 34.5126V0.841772C19.2407 0.376873 19.6176 0 20.0825 0H39.323C39.7879 0 40.1648 0.376873 40.1648 0.841772V8.05696C40.1648 8.52186 39.7879 8.89873 39.323 8.89873H34.1521V34.5126C34.1521 34.9775 33.7752 35.3544 33.3103 35.3544ZM20.9243 33.6709H32.4686V8.05696C32.4686 7.59206 32.8454 7.21519 33.3103 7.21519H38.4812V1.68354H20.9243V33.6709Z" fill="black"/>
<path d="M51.3479 37.7597H38.1201C37.6552 37.7597 37.2783 37.3828 37.2783 36.9179C37.2783 36.453 37.6552 36.0762 38.1201 36.0762H51.3479C51.8128 36.0762 52.1897 36.453 52.1897 36.9179C52.1897 37.3828 51.8128 37.7597 51.3479 37.7597Z" fill="black"/>
<path d="M51.3479 34.1523H38.1201C37.6552 34.1523 37.2783 33.7754 37.2783 33.3105C37.2783 32.8456 37.6552 32.4688 38.1201 32.4688H51.3479C51.8128 32.4688 52.1897 32.8456 52.1897 33.3105C52.1897 33.7754 51.8128 34.1523 51.3479 34.1523Z" fill="black"/>
<path d="M51.3479 30.5439H38.1201C37.6552 30.5439 37.2783 30.167 37.2783 29.7021C37.2783 29.2372 37.6552 28.8604 38.1201 28.8604H51.3479C51.8128 28.8604 52.1897 29.2372 52.1897 29.7021C52.1897 30.167 51.8128 30.5439 51.3479 30.5439Z" fill="black"/>
<path d="M26.0951 35.3541H20.0825C19.6176 35.3541 19.2407 34.9772 19.2407 34.5123V8.05662C19.2407 7.59172 19.6176 7.21484 20.0825 7.21484H26.0951C26.56 7.21484 26.9369 7.59172 26.9369 8.05662V34.5123C26.9369 34.9772 26.56 35.3541 26.0951 35.3541ZM20.9243 33.6705H25.2534V8.89839H20.9243V33.6705Z" fill="black"/>
<path d="M33.3103 12.5068H20.0825C19.6176 12.5068 19.2407 12.1299 19.2407 11.665C19.2407 11.2001 19.6176 10.8232 20.0825 10.8232H33.3103C33.7752 10.8232 34.1521 11.2001 34.1521 11.665C34.1521 12.1299 33.7752 12.5068 33.3103 12.5068Z" fill="black"/>
<path d="M33.3103 16.1142H20.0825C19.6176 16.1142 19.2407 15.7373 19.2407 15.2724C19.2407 14.8075 19.6176 14.4307 20.0825 14.4307H33.3103C33.7752 14.4307 34.1521 14.8075 34.1521 15.2724C34.1521 15.7373 33.7752 16.1142 33.3103 16.1142Z" fill="black"/>
<path d="M33.3103 19.7216H20.0825C19.6176 19.7216 19.2407 19.3448 19.2407 18.8799C19.2407 18.415 19.6176 18.0381 20.0825 18.0381H33.3103C33.7752 18.0381 34.1521 18.415 34.1521 18.8799C34.1521 19.3448 33.7752 19.7216 33.3103 19.7216Z" fill="black"/>
<path d="M33.3103 23.3291H20.0825C19.6176 23.3291 19.2407 22.9522 19.2407 22.4873C19.2407 22.0224 19.6176 21.6455 20.0825 21.6455H33.3103C33.7752 21.6455 34.1521 22.0224 34.1521 22.4873C34.1521 22.9522 33.7752 23.3291 33.3103 23.3291Z" fill="black"/>
<path d="M33.3103 26.9365H20.0825C19.6176 26.9365 19.2407 26.5596 19.2407 26.0947C19.2407 25.6298 19.6176 25.2529 20.0825 25.2529H33.3103C33.7752 25.2529 34.1521 25.6298 34.1521 26.0947C34.1521 26.5596 33.7752 26.9365 33.3103 26.9365Z" fill="black"/>
<path d="M33.3103 30.5439H20.0825C19.6176 30.5439 19.2407 30.167 19.2407 29.7021C19.2407 29.2372 19.6176 28.8604 20.0825 28.8604H33.3103C33.7752 28.8604 34.1521 29.2372 34.1521 29.7021C34.1521 30.167 33.7752 30.5439 33.3103 30.5439Z" fill="black"/>
<path d="M56.1581 56.9996H50.1455C49.6806 56.9996 49.3037 56.6228 49.3037 56.1579V46.1769H33.31C32.8451 46.1769 32.4683 45.8 32.4683 45.3351V8.05662C32.4683 7.59172 32.8451 7.21484 33.31 7.21484H56.1581C56.623 7.21484 56.9999 7.59172 56.9999 8.05662V56.1579C56.9999 56.6228 56.623 56.9996 56.1581 56.9996ZM50.9872 55.3161H55.3164V8.89839H34.1518V44.4933H50.1455C50.6104 44.4933 50.9872 44.8702 50.9872 45.3351V55.3161Z" fill="black"/>
<path d="M50.1451 49.7851H21.2844C20.8195 49.7851 20.4426 49.4082 20.4426 48.9433C20.4426 48.4784 20.8195 48.1016 21.2844 48.1016H50.1451C50.61 48.1016 50.9869 48.4784 50.9869 48.9433C50.9869 49.4082 50.61 49.7851 50.1451 49.7851Z" fill="black"/>
<path d="M50.1451 53.3925H21.2844C20.8195 53.3925 20.4426 53.0157 20.4426 52.5508C20.4426 52.0859 20.8195 51.709 21.2844 51.709H50.1451C50.61 51.709 50.9869 52.0859 50.9869 52.5508C50.9869 53.0157 50.61 53.3925 50.1451 53.3925Z" fill="black"/>
<path d="M5.65183 56.9996C5.18693 56.9996 4.81006 56.6227 4.81006 56.1578V42.93C4.81006 42.665 4.93488 42.4155 5.14677 42.2565L9.95689 38.6489C10.3287 38.37 10.8564 38.4452 11.1354 38.8172C11.4142 39.1891 11.339 39.7167 10.967 39.9957L6.4936 43.3508V56.1578C6.4936 56.6227 6.11673 56.9996 5.65183 56.9996Z" fill="black"/>
<path d="M5.65132 47.3792C5.47563 47.3792 5.29826 47.3245 5.14686 47.2109L0.336735 43.6033C-0.0352081 43.3244 -0.110487 42.7967 0.16838 42.4248C0.447247 42.0529 0.974918 41.9771 1.34686 42.2566L6.15698 45.8642C6.52893 46.143 6.60421 46.6707 6.32534 47.0426C6.15999 47.2629 5.90722 47.3792 5.65132 47.3792Z" fill="black"/>
<path d="M5.6514 43.772C5.29894 43.772 4.97053 43.5489 4.85292 43.1962L3.65039 39.5886C3.50332 39.1475 3.74166 38.6709 4.18275 38.5239C4.62372 38.3768 5.10052 38.6153 5.24747 39.0563L6.45 42.6639C6.59707 43.105 6.35873 43.5816 5.91764 43.7286C5.82937 43.758 5.73967 43.772 5.6514 43.772Z" fill="black"/>
<path d="M5.65126 50.987C5.47557 50.987 5.29819 50.9323 5.14679 50.8187C4.77485 50.5398 4.69957 50.0121 4.97844 49.6402L8.58603 44.8301C8.8649 44.4581 9.39257 44.3824 9.76451 44.6618C10.1365 44.9407 10.2117 45.4684 9.93287 45.8403L6.32527 50.6505C6.15993 50.8708 5.90715 50.987 5.65126 50.987Z" fill="black"/>
<path d="M13.4687 14.911H7.45604C6.0783 14.911 4.94323 13.8526 4.8213 12.506H3.84845C2.38966 12.506 1.20288 11.3192 1.20288 9.86041C1.20288 8.40162 2.38966 7.21484 3.84845 7.21484H7.45604C8.83378 7.21484 9.96885 8.27331 10.0908 9.61991H13.4687C14.9275 9.61991 16.1143 10.8067 16.1143 12.2655C16.1143 13.7243 14.9275 14.911 13.4687 14.911ZM3.84845 8.89839C3.31801 8.89839 2.88642 9.32998 2.88642 9.86041C2.88642 10.3908 3.31801 10.8224 3.84845 10.8224H5.75711C6.03044 10.8224 6.2867 10.9552 6.44447 11.1783C6.60225 11.4015 6.64181 11.6873 6.55066 11.945C6.51302 12.0512 6.49402 12.1589 6.49402 12.2655C6.49402 12.7959 6.92561 13.2275 7.45604 13.2275H13.4687C13.9991 13.2275 14.4307 12.7959 14.4307 12.2655C14.4307 11.735 13.9991 11.3034 13.4687 11.3034H9.15498C8.88164 11.3034 8.62538 11.1707 8.46761 10.9476C8.30984 10.7244 8.27028 10.4386 8.36143 10.1809C8.39907 10.0747 8.41807 9.96696 8.41807 9.86041C8.41807 9.32998 7.98648 8.89839 7.45604 8.89839H3.84845Z" fill="black"/>
<path d="M46.5378 26.9368C46.0729 26.9368 45.696 26.5599 45.696 26.095V12.8672C45.696 12.4023 46.0729 12.0254 46.5378 12.0254C47.0027 12.0254 47.3796 12.4023 47.3796 12.8672V26.095C47.3796 26.5599 47.0027 26.9368 46.5378 26.9368Z" fill="black"/>
<path d="M42.9299 26.9368C42.465 26.9368 42.0881 26.5599 42.0881 26.095V12.8672C42.0881 12.4023 42.465 12.0254 42.9299 12.0254C43.3948 12.0254 43.7717 12.4023 43.7717 12.8672V26.095C43.7717 26.5599 43.3948 26.9368 42.9299 26.9368Z" fill="black"/>
</svg>
