<svg width="50" height="60" viewBox="0 0 50 60" fill="none" xmlns="http://www.w3.org/2000/svg">
<path d="M49.7965 54.8712C49.8157 54.8459 49.8344 54.82 49.851 54.7927C49.8676 54.7661 49.8823 54.7382 49.8962 54.7102C49.9102 54.6816 49.9235 54.6524 49.9348 54.6218C49.9461 54.5912 49.9554 54.5606 49.9634 54.5286C49.9714 54.4974 49.9794 54.4668 49.984 54.4348C49.9894 54.4016 49.992 54.3683 49.994 54.3337C49.9953 54.3138 50 54.2945 50 54.2745C50 53.8887 49.9667 53.5056 49.9089 53.1257L47.8002 27.3954C47.7969 27.3541 47.7962 27.3122 47.7902 27.2716L47.7709 27.0375C47.7516 26.8033 47.6492 26.5991 47.4989 26.4415C46.8776 25.3625 45.3995 24.6208 43.6321 24.6208C41.3319 24.6208 39.5252 25.8767 39.4567 27.4965C39.456 27.5038 39.4533 27.4519 39.4533 27.4592L39.2125 30.5989H35.1103C37.0553 27.273 38.1509 23.2811 38.1509 20.0463C38.1509 19.3379 38.087 18.6647 37.9686 17.9722C39.0981 17.6895 39.9389 16.6824 39.9389 15.4664C39.9389 14.289 39.152 13.3006 38.0771 12.9813C37.2921 7.077 32.4994 2.40135 26.4767 1.6703C26.206 0.706436 25.3213 0 24.2716 0H24.1479C23.021 0 22.0831 1.03039 21.8935 2.10401C16.5214 3.29205 12.3673 7.31714 11.599 13.3039H11.3296C9.89543 13.3039 8.72868 14.1979 8.72868 15.6321C8.72868 17.0662 9.89543 17.9602 11.3296 17.9602H11.6249C11.5152 18.6254 11.4533 19.3046 11.4533 19.9858C11.4533 23.3357 12.5848 27.273 14.4374 30.5989H3.77431C3.22752 30.5989 2.9967 31.1584 2.9967 31.7058V47.5075C1.00112 49.5284 0 51.8333 0 54.2466C0 54.7941 0.390469 55.2371 0.937259 55.2371C1.48471 55.2371 1.90113 54.7934 1.90113 54.2466C1.90113 48.6563 10.5234 43.08 14.1693 42.2225C15.4671 41.9172 16.4602 41.4363 17.2332 40.8622L19.1889 44.9219C19.3585 45.2731 19.709 45.482 20.0796 45.482C20.1906 45.482 20.3164 45.4634 20.4261 45.4241L23.6177 44.2853V58.2098C23.6177 58.7573 24.0681 59.2003 24.6155 59.2003C25.163 59.2003 25.6133 58.7566 25.6133 58.2092V43.9407L29.7302 45.4235C29.84 45.4627 29.9431 45.4813 30.0541 45.4813C30.4247 45.4813 30.7719 45.2725 30.9415 44.9212L32.8393 40.984C33.5877 41.5041 34.5342 41.9385 35.7389 42.2219C37.4405 42.6223 40.5542 44.1583 43.3713 46.5849C45.9922 48.8426 47.5827 51.214 47.9419 53.3619L48.023 54.3557C48.025 54.377 48.031 54.3963 48.0337 54.4169C48.0383 54.4482 48.043 54.4788 48.0503 54.5087C48.0583 54.5419 48.0689 54.5732 48.0802 54.6051C48.0902 54.6331 48.0995 54.6603 48.1115 54.687C48.1261 54.7182 48.1428 54.7482 48.1607 54.7774C48.1747 54.8014 48.1887 54.8253 48.2046 54.8479C48.2246 54.8765 48.2479 54.9025 48.2712 54.9284C48.2891 54.949 48.3064 54.9697 48.3257 54.989C48.351 55.0129 48.3789 55.0342 48.4062 55.0555C48.4275 55.0721 48.4481 55.0901 48.4707 55.1047C48.5007 55.1247 48.5332 55.14 48.5658 55.1566C48.5891 55.1686 48.6111 55.1819 48.6357 55.1918C48.6743 55.2078 48.7148 55.2184 48.7561 55.2291C48.7767 55.2344 48.7953 55.2158 48.8166 55.2198C48.8785 55.2311 48.943 55.2111 49.0089 55.2111H49.0095C49.0095 55.2111 49.0095 55.2111 49.0102 55.2111H49.0109C49.0375 55.2111 49.0641 55.2371 49.0913 55.2351C49.112 55.2331 49.1299 55.2404 49.1499 55.2377C49.1838 55.2331 49.2171 55.2344 49.2497 55.2264C49.2816 55.2184 49.3115 55.2118 49.3421 55.2012C49.3727 55.1905 49.4027 55.1805 49.4319 55.1666C49.4612 55.1526 49.4891 55.138 49.5171 55.1213C49.5443 55.1054 49.5703 55.0887 49.5956 55.0701C49.6215 55.0508 49.6455 55.0309 49.6694 55.0096C49.6927 54.9883 49.7153 54.967 49.7366 54.9444C49.7579 54.9204 49.7772 54.8965 49.7965 54.8712ZM24.2829 8.33821C24.2829 8.50917 24.1446 8.64753 23.9736 8.64753H23.9277C23.7561 8.64753 23.6177 8.50917 23.6177 8.33821V2.3049C23.6177 2.13394 23.7561 1.99558 23.927 1.99558H23.9729C24.1446 1.99558 24.2829 2.13394 24.2829 2.3049V8.33821ZM21.6221 3.94061V7.86393C21.6221 9.1278 22.8847 10.6431 24.1479 10.6431H24.2716C25.5348 10.6431 26.2785 9.1278 26.2785 7.86459V3.68385C31.6001 4.4129 35.2606 8.64753 36.0562 13.3039H13.5999C14.327 8.64753 17.631 5.07011 21.6221 3.94061ZM11.3296 15.9647C10.9883 15.9647 10.7103 15.9733 10.7103 15.6321C10.7103 15.2908 10.9877 15.2995 11.3296 15.2995H37.338C37.6793 15.2995 37.9573 15.2908 37.9573 15.6321C37.9573 15.9733 37.6793 15.9647 37.338 15.9647H11.3296ZM13.8168 40.2928C11.6915 40.793 8.31826 42.7308 4.99228 45.478V32.5945H15.664C15.6793 32.5945 15.6939 32.6418 15.7099 32.6411C16.3578 33.5285 17.1061 34.3387 17.8352 35.0125C17.9336 35.8347 18.1279 39.2791 13.8168 40.2928ZM16.6146 30.5045C14.6828 27.4266 13.4349 23.2838 13.4349 20.043C13.4349 19.3605 13.5061 18.6248 13.6358 17.9596H35.9704C36.1001 18.6248 36.1686 19.3605 36.1686 20.043C36.1686 26.4594 31.3958 36.0083 24.8018 36.0083C20.7008 36.009 17.9124 32.5719 16.6146 30.5045ZM20.5844 43.2569L19.7802 41.5906L22.3339 42.6303L20.5844 43.2569ZM29.5393 43.2569L27.7898 42.6303L30.3435 41.5906L29.5393 43.2569ZM25.0619 41.6013L18.8483 39.0722C19.3651 38.1961 19.6039 37.2868 19.7051 36.5105C21.3042 37.4983 23.025 38.0205 24.8018 38.0205C26.7634 38.0205 28.5634 37.3746 30.1646 36.2963C30.2504 37.1371 30.4938 38.1662 31.0912 39.1467L25.0619 41.6013ZM38.4323 41.0418C37.5842 40.6613 36.8172 40.4146 36.1919 40.2675C31.5123 39.1673 32.0637 35.2925 32.1429 34.8462C32.1568 34.7724 32.1602 34.7058 32.1575 34.634C32.7555 34.0353 33.3149 33.3296 33.8331 32.6258C33.8857 32.6344 33.9389 32.5945 33.9941 32.5945H39.0642L38.4323 41.0418ZM43.6328 26.6025C44.9159 26.6025 45.7308 27.1685 45.8239 27.5257L45.8306 27.6089C45.8046 27.9608 44.9758 28.5801 43.6328 28.5801C42.2678 28.5801 41.4323 27.9395 41.4323 27.5909C41.4323 27.2424 42.2678 26.6025 43.6328 26.6025ZM40.3307 42.0562C40.344 42.003 40.3547 41.9485 40.3593 41.8919L41.0964 32.0983C41.1483 31.9779 41.1775 31.8455 41.1775 31.7058C41.1775 31.6213 41.1636 31.5409 41.1436 31.4624L41.25 30.0455C41.9219 30.3714 42.7401 30.561 43.6328 30.561C44.5321 30.561 45.3549 30.3681 46.0301 30.0375L47.5022 47.9984C45.5671 45.5326 42.8086 43.4518 40.3307 42.0562Z" fill="black"/>
<path d="M38.4519 49.8896H31.7641C31.2173 49.8896 30.9346 50.479 30.9346 51.0258V56.8882C30.9346 57.2946 31.1022 57.6604 31.4807 57.8095L34.784 59.1305C34.9011 59.1764 35.0042 59.1997 35.128 59.1997C35.2517 59.1997 35.3654 59.1764 35.4818 59.1305L38.8903 57.8095C39.2695 57.6604 39.5821 57.2946 39.5821 56.8882V51.0258C39.5821 50.479 38.9994 49.8896 38.4519 49.8896ZM37.5865 56.2143L35.2583 57.1443L32.9302 56.2143V51.8852H37.5865V56.2143Z" fill="black"/>
<path d="M12.4433 35.9209H7.73706C7.1896 35.9209 6.74658 36.3712 6.74658 36.9187C6.74658 37.4661 7.19027 37.9165 7.73706 37.9165H12.4433C12.9908 37.9165 13.4338 37.4661 13.4338 36.9187C13.4338 36.3712 12.9908 35.9209 12.4433 35.9209Z" fill="black"/>
<path d="M43.906 35.916C43.3585 35.916 42.9082 36.3597 42.9082 36.9065V41.3653C42.9082 41.9127 43.3585 42.3558 43.906 42.3558C44.4534 42.3558 44.9038 41.9121 44.9038 41.3653V36.9065C44.9038 36.3597 44.4534 35.916 43.906 35.916Z" fill="black"/>
<path d="M27.6769 31.7063C27.9383 31.7063 28.1997 31.6032 28.394 31.399C33.7893 25.7402 32.7696 21.4816 32.723 21.3027C32.586 20.7732 32.0452 20.4466 31.5144 20.5843C30.9842 20.7213 30.6643 21.2548 30.8013 21.7849C30.8033 21.7936 30.9889 22.6417 30.623 24.0586C30.2785 25.3923 29.3631 27.5109 26.9598 30.0314C26.582 30.4272 26.5973 31.0544 26.9931 31.4323C27.1853 31.6152 27.4314 31.7063 27.6769 31.7063Z" fill="black"/>
<path d="M13.54 45.3658C13.3026 45.4323 7.70096 47.058 5.44595 53.1599C5.25637 53.6734 5.51846 54.2428 6.03199 54.4324C6.14507 54.4743 6.26148 54.4943 6.37523 54.4943C6.77767 54.4943 7.15683 54.2468 7.3045 53.847C9.19831 48.7217 13.8726 47.3314 14.0749 47.2736C14.6004 47.1252 14.907 46.5798 14.76 46.0536C14.6137 45.5268 14.0682 45.2188 13.54 45.3658Z" fill="black"/>
</svg>
