<svg width="13" height="14" viewBox="0 0 13 14" fill="none" xmlns="http://www.w3.org/2000/svg">
<path d="M7.2246 1.32517C8.41686 1.32517 9.5269 1.79112 10.3766 2.62707C11.2125 3.46303 11.6785 4.60047 11.6785 5.76533C11.6785 6.10794 11.9525 6.38202 12.2951 6.38202C12.6378 6.38202 12.9118 6.10794 12.9118 5.76533C12.9255 4.27157 12.3226 2.80523 11.2536 1.7363C10.171 0.694781 8.74576 0.0917969 7.2246 0.0917969C6.88199 0.0917969 6.60791 0.365881 6.60791 0.708485C6.60791 1.05109 6.88199 1.32517 7.2246 1.32517Z" fill="black"/>
<path d="M7.2246 3.69529C7.78647 3.69529 8.30723 3.91456 8.70465 4.31198C9.10207 4.7094 9.32134 5.23016 9.32134 5.79203C9.32134 6.13464 9.59542 6.40872 9.93803 6.40872C10.2806 6.40872 10.5547 6.13464 10.5547 5.79203C10.5547 4.90126 10.2121 4.0653 9.58172 3.43491C8.95133 2.80452 8.11537 2.46191 7.2246 2.46191C6.88199 2.46191 6.60791 2.736 6.60791 3.0786C6.60791 3.42121 6.88199 3.69529 7.2246 3.69529Z" fill="black"/>
<path d="M12.5279 9.45148L9.86931 8.08106C9.4993 7.8892 9.03336 7.98513 8.77298 8.31403L7.79998 9.56111C6.85439 9.05406 6.12807 8.56071 5.29212 7.72475C4.40134 6.83398 3.9217 6.09395 3.42835 5.17577L4.66172 4.21648C4.99062 3.9561 5.10026 3.49016 4.89469 3.12014L3.53798 0.475236C3.2913 0.00929383 2.70202 -0.141452 2.27719 0.146336L0.577874 1.27008C0.194157 1.53046 -0.02511 1.9827 0.00229833 2.44864C0.0297067 2.92829 0.0982276 3.53127 0.207861 3.9561C0.701212 5.84728 1.87977 7.80698 3.53798 9.46519C5.19619 11.1371 7.15589 12.3157 9.04706 12.809C9.47189 12.9186 10.0749 12.9735 10.5682 13.0146C11.0479 13.042 11.5001 12.809 11.7605 12.4116L12.8568 10.6986C13.1446 10.26 12.9802 9.68445 12.5279 9.45148Z" fill="black"/>
</svg>
