<svg width="26" height="26" viewBox="0 0 26 26" fill="none" xmlns="http://www.w3.org/2000/svg">
<path d="M23.7153 8.81641C23.7153 8.06178 23.6146 7.39627 23.4132 6.81988C23.2141 6.24349 22.9583 5.78516 22.6458 5.44488C22.3356 5.10692 21.9572 4.8303 21.5104 4.61502C21.0637 4.40205 20.6262 4.25854 20.1979 4.18446C19.7697 4.11039 19.3137 4.07335 18.8299 4.07335C18.3484 4.07335 17.8275 4.19141 17.2674 4.42752C16.7095 4.66363 16.1956 4.96108 15.7257 5.31988C15.2581 5.67867 14.8565 6.01317 14.5208 6.32335C14.1852 6.63585 13.9062 6.92289 13.684 7.18446C13.5174 7.38817 13.2894 7.49002 13 7.49002C12.7106 7.49002 12.4826 7.38817 12.316 7.18446C12.0937 6.92289 11.8148 6.63585 11.4792 6.32335C11.1435 6.01317 10.7419 5.67867 10.2743 5.31988C9.8044 4.96108 9.29051 4.66363 8.73264 4.42752C8.17245 4.19141 7.65162 4.07335 7.17014 4.07335C6.68634 4.07335 6.23032 4.11039 5.80208 4.18446C5.37384 4.25854 4.93634 4.40205 4.48958 4.61502C4.04282 4.8303 3.66435 5.10692 3.35417 5.44488C3.04167 5.78516 2.78588 6.24349 2.58681 6.81988C2.38542 7.39627 2.28472 8.06178 2.28472 8.81641C2.28472 10.3789 3.15509 12.0294 4.89583 13.7678L13 21.5803L21.0903 13.7817C22.8403 12.034 23.7153 10.3789 23.7153 8.81641ZM25.5 8.81641C25.5 10.872 24.4352 12.9646 22.3056 15.0942L13.6146 23.4622C13.4456 23.6312 13.2407 23.7157 13 23.7157C12.7593 23.7157 12.5544 23.6312 12.3854 23.4622L3.68056 15.0664C3.58796 14.9923 3.46065 14.8708 3.29861 14.7018C3.13426 14.5352 2.87616 14.2308 2.52431 13.7886C2.17014 13.3465 1.85301 12.8928 1.57292 12.4275C1.29514 11.9622 1.0463 11.3997 0.826389 10.74C0.608796 10.0803 0.5 9.43909 0.5 8.81641C0.5 6.77011 1.09028 5.17057 2.27083 4.0178C3.4537 2.8627 5.0868 2.28516 7.17014 2.28516C7.74653 2.28516 8.33449 2.38585 8.93403 2.58724C9.53356 2.78631 10.0914 3.05599 10.6076 3.39627C11.1238 3.73423 11.5683 4.05252 11.941 4.35113C12.3113 4.64974 12.6644 4.96571 13 5.29905C13.3356 4.96571 13.6887 4.64974 14.059 4.35113C14.4317 4.05252 14.8762 3.73423 15.3924 3.39627C15.9086 3.05599 16.4664 2.78631 17.066 2.58724C17.6655 2.38585 18.2535 2.28516 18.8299 2.28516C20.9132 2.28516 22.5463 2.8627 23.7292 4.0178C24.9097 5.17057 25.5 6.77011 25.5 8.81641Z" fill="white"/>
</svg>
