<svg width="40" height="40" viewBox="0 0 40 40" fill="none" xmlns="http://www.w3.org/2000/svg">
<path d="M20 0C8.9785 0 0 8.9785 0 20C0 31.0215 8.9785 40 20 40C31.0215 40 40 31.0215 40 20C40 8.9785 31.0215 0 20 0ZM20 37.8495C10.1613 37.8495 2.15054 29.8387 2.15054 20C2.15054 10.1613 10.1613 2.15054 20 2.15054C29.8387 2.15054 37.8495 10.1613 37.8495 20C37.8495 29.8387 29.8387 37.8495 20 37.8495Z" fill="black"/>
<path d="M32.3122 19.4086C32.3122 19.3548 32.3122 19.3548 32.2584 19.301C32.2584 19.2473 32.2584 19.2473 32.2047 19.1935C32.2047 19.1397 32.1509 19.1397 32.1509 19.086C32.1509 19.0322 32.0971 19.0322 32.0971 18.9785C32.0971 18.9247 32.0434 18.9247 31.9896 18.8709C31.9896 18.8709 31.9896 18.8172 31.9358 18.8172L20.753 7.41931L20.6993 7.36555C20.6455 7.31179 20.6455 7.31179 20.5918 7.25802C20.538 7.25802 20.538 7.20426 20.4842 7.20426C20.4305 7.20426 20.4305 7.1505 20.3767 7.1505C20.3229 7.1505 20.3229 7.1505 20.2692 7.09673C20.2154 7.09673 20.2154 7.09673 20.1616 7.04297C20.1079 7.04297 20.1079 7.04297 20.0541 7.04297C20.0004 7.04297 20.0004 7.04297 19.9466 7.04297C19.8928 7.04297 19.8928 7.04297 19.8391 7.04297C19.7853 7.04297 19.7853 7.04297 19.7315 7.04297C19.6778 7.04297 19.6778 7.04297 19.624 7.09673C19.5703 7.09673 19.5703 7.09673 19.5165 7.1505C19.4627 7.1505 19.4627 7.20426 19.409 7.20426C19.3552 7.20426 19.3552 7.25802 19.3014 7.25802C19.2477 7.25802 19.2477 7.31179 19.1939 7.36555L19.1401 7.41931L8.01111 18.8709C8.01111 18.8709 8.01111 18.9247 7.95735 18.9247C7.90358 18.9785 7.90358 18.9785 7.84982 19.0322C7.84982 19.086 7.79606 19.086 7.79606 19.1397C7.79606 19.1935 7.74229 19.1935 7.74229 19.2473C7.74229 19.301 7.74229 19.301 7.68853 19.3548C7.68853 19.4086 7.68853 19.4086 7.63477 19.4623C7.63477 19.5161 7.63477 19.5699 7.63477 19.6236V19.6774C7.63477 19.7311 7.63477 19.8387 7.63477 19.8924C7.63477 19.9462 7.63477 19.9462 7.68853 20C7.68853 20.0537 7.68853 20.0537 7.74229 20.1075C7.74229 20.1612 7.79606 20.215 7.79606 20.2688C7.79606 20.2688 7.79606 20.2688 7.79606 20.3225C7.84982 20.3763 7.90358 20.4301 7.95735 20.4838C7.95735 20.4838 8.01111 20.4838 8.01111 20.5376C8.06487 20.5914 8.06487 20.5914 8.11864 20.6451C8.1724 20.6451 8.1724 20.6989 8.22616 20.6989C8.27993 20.6989 8.27993 20.7526 8.33369 20.7526C8.38745 20.7526 8.38745 20.7526 8.44122 20.8064C8.49498 20.8064 8.49498 20.8064 8.54874 20.8064C8.60251 20.8064 8.71003 20.8064 8.7638 20.8064H11.5057V29.4623C11.5057 30.0537 11.9896 30.5376 12.581 30.5376H17.9036C18.495 30.5376 18.9789 30.0537 18.9789 29.4623V24.1935H20.0004H21.0219V29.4623C21.0219 30.0537 21.5057 30.5376 22.0971 30.5376H27.4197C28.0111 30.5376 28.495 30.0537 28.495 29.4623V20.6989H31.2369C31.2907 20.6989 31.3982 20.6989 31.452 20.6989H31.5057C31.5595 20.6989 31.6133 20.6989 31.6133 20.6451C31.667 20.6451 31.667 20.5914 31.7208 20.5914C31.7746 20.5914 31.7746 20.5376 31.8283 20.5376C31.8821 20.4838 31.8821 20.4838 31.9358 20.4301C31.9358 20.4301 31.9896 20.4301 31.9896 20.3763C32.0434 20.3225 32.0971 20.2688 32.1509 20.215C32.1509 20.215 32.1509 20.215 32.1509 20.1612C32.2047 20.1075 32.2047 20.0537 32.2047 20C32.2047 19.9462 32.2047 19.9462 32.2584 19.8924C32.2584 19.8387 32.2584 19.8387 32.3122 19.7849C32.3122 19.7311 32.3122 19.6236 32.3122 19.5699V19.5161C32.3122 19.4623 32.3122 19.4623 32.3122 19.4086ZM27.4197 18.5483C26.8283 18.5483 26.3444 19.0322 26.3444 19.6236V28.2795H23.1724V23.0107C23.1724 22.4193 22.6885 21.9354 22.0971 21.9354H20.0004H17.9036C17.3122 21.9354 16.8283 22.4193 16.8283 23.0107V28.2795H13.6563V19.6236C13.6563 19.0322 13.1724 18.5483 12.581 18.5483H11.2907L20.0004 9.67738L28.6563 18.4946H27.4197V18.5483Z" fill="black"/>
</svg>
