<svg width="61" height="56" viewBox="0 0 61 56" fill="none" xmlns="http://www.w3.org/2000/svg">
<path d="M52.7587 55.9996C37.9225 55.9996 23.095 55.9996 8.25887 55.9996C3.72218 55.9996 0.0262742 52.3475 0 47.802V21.6592C0 17.105 3.70467 13.3915 8.23259 13.3915C8.74056 13.3915 9.15219 13.8032 9.15219 14.3111L9.14343 22.0796C13.3999 22.0796 17.6475 22.0796 21.8952 22.0796L26.0465 10.3437C26.0991 8.6797 27.0449 7.17331 28.4988 6.4026V1.32292C28.4988 0.81495 28.9104 0.40332 29.4184 0.40332H31.7831C32.291 0.40332 32.6939 0.81495 32.6939 1.32292V6.30626C34.2528 7.0507 35.2775 8.60964 35.3301 10.3437L39.4814 22.0796H51.8478V14.3111C51.8478 13.8032 52.2507 13.3915 52.7587 13.3915C57.2866 13.3915 60.9737 17.0612 60.9912 21.5891L61 47.7582C60.8949 52.4351 57.4355 55.8945 52.7587 55.9996ZM30.8722 5.85084V2.23376H30.3292V5.85084C30.5044 5.85084 30.6883 5.85084 30.8722 5.85084ZM30.6182 7.68128C29.0943 7.71631 27.8682 8.96872 27.8682 10.5014C27.8682 12.0516 29.1381 13.3215 30.6883 13.3215C32.2472 13.3215 33.5084 12.0516 33.5084 10.5014C33.5084 8.88114 32.2122 7.68128 30.6182 7.68128ZM21.1157 29.7516C21.8777 29.848 22.517 30.1983 23.0425 30.7588C23.349 30.6625 23.6556 30.6625 23.9621 30.715C25.8013 25.4689 27.6317 20.2228 29.4622 14.9768C28.4637 14.7053 27.5704 14.0922 26.9486 13.2514L21.1157 29.7516ZM23.8658 32.5542C23.8833 32.6768 23.892 32.7907 23.892 32.9133C23.892 34.0518 23.2702 35.1116 22.2981 35.6721L19.4867 42.9325C19.1276 43.8609 17.7263 43.6069 17.7263 42.6085L17.7526 34.1657C17.5862 33.7803 17.4986 33.36 17.4986 32.9133C17.4986 31.7923 18.0854 30.7588 19.0313 30.1895L21.2559 23.9012C17.2184 23.9012 13.1809 23.9012 9.14343 23.9012V40.2788C9.11716 40.8481 8.89821 41.3386 8.23259 41.3386C4.69433 41.3386 1.82168 44.2112 1.82168 47.7582C1.82168 51.2965 4.69433 54.1692 8.23259 54.1692C23.0688 54.1692 37.8962 54.1692 52.7324 54.1692C56.2882 54.1692 59.1696 51.314 59.1696 47.7582C59.1696 44.2112 56.2969 41.3386 52.7587 41.3386C52.2507 41.3386 51.8478 40.9357 51.8478 40.4277V23.9012H40.1295L44.6662 36.7581C44.7275 36.9157 44.7363 37.0734 44.7012 37.231L43.6415 42.7749C43.4663 43.6945 42.1789 43.7733 41.8811 42.8887C40.5762 39.5344 39.2975 36.1713 37.975 32.8257C37.8612 32.563 37.7035 32.4579 37.2218 32.6768C36.7576 32.8783 36.2234 32.6768 36.022 32.2127L33.1143 23.9012H28.2711L25.3634 32.2127C25.0306 32.9658 24.4263 32.7469 23.8658 32.5542ZM20.1961 36.075C19.9772 36.0399 19.767 35.9786 19.5655 35.9086V37.704L20.1961 36.075ZM20.6953 31.547C19.9509 31.547 19.3203 32.1426 19.3203 32.9133C19.3203 33.6753 19.9334 34.2883 20.6953 34.2883C21.4485 34.2883 22.0616 33.6753 22.0616 32.9133C22.0616 32.1776 21.4748 31.547 20.6953 31.547ZM34.428 13.2514C33.8062 14.0922 32.9304 14.7053 31.9144 14.9768L37.4057 30.6887C38.6056 30.4085 39.1486 30.9953 39.6391 32.0813C40.5849 34.4898 41.5133 36.907 42.4504 39.3242L42.8708 37.1259L34.428 13.2514ZM30.6883 16.9824L28.9104 22.0796H32.4749L30.6883 16.9824ZM7.32175 39.5694C7.32175 31.477 7.32175 23.3758 7.32175 15.2833C4.16884 15.7387 1.82168 18.445 1.82168 21.6329V42.591C3.18794 40.9007 5.15851 39.8059 7.32175 39.5694ZM53.6695 39.5694C55.824 39.8059 57.8121 40.9007 59.1696 42.591V21.6592C59.1696 18.4537 56.8487 15.7387 53.6695 15.2833C53.6695 23.3758 53.6695 31.477 53.6695 39.5694Z" fill="black"/>
</svg>
