<svg width="28" height="40" viewBox="0 0 28 40" fill="none" xmlns="http://www.w3.org/2000/svg">
<path d="M26.361 39.9998H0.850354C0.340142 39.9998 0 39.6597 0 39.1495V0.883557C0 0.373345 0.340142 0.0332031 0.850354 0.0332031H26.361C26.8712 0.0332031 27.2113 0.373345 27.2113 0.883557V39.1495C27.2113 39.6597 26.8712 39.9998 26.361 39.9998ZM1.70071 38.2991H25.5106V1.73391H1.70071V38.2991Z" fill="black"/>
<path d="M26.3609 40C26.2758 40 26.1908 40 26.1058 40L7.39798 34.8979C7.05784 34.8128 6.80273 34.4727 6.80273 34.0475V5.98584C6.80273 5.56066 7.05784 5.30555 7.39798 5.13548L26.1058 0.0333598C26.3609 -0.0516756 26.616 0.0333598 26.8711 0.203431C27.1262 0.373501 27.2112 0.628608 27.2112 0.883714V39.1496C27.2112 39.4048 27.1262 39.6599 26.8711 39.8299C26.701 39.915 26.531 40 26.3609 40ZM8.50344 33.4523L25.5105 38.0442V1.98917L8.50344 6.58109V33.4523Z" fill="black"/>
<path d="M13.6055 19.166H10.2041V20.8667H13.6055V19.166Z" fill="black"/>
</svg>
