<svg width="40" height="40" viewBox="0 0 40 40" fill="none" xmlns="http://www.w3.org/2000/svg">
<path d="M39.3333 33.3333H37.3333V0.666667C37.3333 0.266667 37.0667 0 36.6667 0H3.33333C2.93333 0 2.66667 0.266667 2.66667 0.666667V33.3333H0.666667C0.266667 33.3333 0 33.6 0 34V36.6667C0 37.0667 0.266667 37.3333 0.666667 37.3333H2.66667V39.3333C2.66667 39.7333 2.93333 40 3.33333 40H6C6.4 40 6.66667 39.7333 6.66667 39.3333V37.3333H33.3333V39.3333C33.3333 39.7333 33.6 40 34 40H36.6667C37.0667 40 37.3333 39.7333 37.3333 39.3333V37.3333H39.3333C39.7333 37.3333 40 37.0667 40 36.6667V34C40 33.6 39.7333 33.3333 39.3333 33.3333ZM4 1.33333H36V33.3333H34.6667V20V3.33333C34.6667 2.93333 34.4 2.66667 34 2.66667H20H6C5.6 2.66667 5.33333 2.93333 5.33333 3.33333V20V33.3333H4V1.33333ZM20.6667 33.3333V20.6667H33.3333V33.3333H20.6667ZM6.66667 33.3333V20.6667H19.3333V33.3333H6.66667ZM33.3333 4V19.3333H20.6667V4H33.3333ZM19.3333 19.3333H6.66667V4H19.3333V19.3333ZM5.33333 38.6667H4V37.3333H5.33333V38.6667ZM36 38.6667H34.6667V37.3333H36V38.6667ZM38.6667 36H36.6667H34H6H3.33333H1.33333V34.6667H3.33333H6H20H34H36.6667H38.6667V36Z" fill="black"/>
<path d="M10.5348 12.8005C10.6682 12.8005 10.9348 12.8005 10.9348 12.6671L15.3348 8.26712C15.6015 8.00046 15.6015 7.60046 15.3348 7.33379C15.0682 7.06712 14.6682 7.06712 14.4015 7.33379L10.0015 11.7338C9.86816 11.8671 9.86816 12.0005 9.86816 12.1338C9.86816 12.5338 10.1348 12.8005 10.5348 12.8005Z" fill="black"/>
<path d="M11.1992 16.1338C11.1992 16.5338 11.4659 16.8005 11.8659 16.8005C11.9992 16.8005 12.2659 16.8005 12.3992 16.6671L16.7992 12.2671C17.0659 12.0005 17.0659 11.6005 16.7992 11.3338C16.5326 11.0671 16.1326 11.0671 15.8659 11.3338L11.4659 15.7338C11.1992 15.8671 11.1992 16.0005 11.1992 16.1338Z" fill="black"/>
<path d="M28.6669 21.9998C28.4002 21.7331 28.0002 21.7331 27.7335 21.9998L23.3335 26.3998C23.2002 26.5331 23.2002 26.6665 23.2002 26.7998C23.2002 27.1998 23.4669 27.4665 23.8669 27.4665C24.0002 27.4665 24.2669 27.4665 24.4002 27.3331L28.8002 22.9331C28.9335 22.6665 28.9335 22.2665 28.6669 21.9998Z" fill="black"/>
<path d="M29.0665 25.9998L24.6665 30.3998C24.5332 30.5331 24.5332 30.6665 24.5332 30.7998C24.5332 31.1998 24.7999 31.4665 25.1999 31.4665C25.3332 31.4665 25.5999 31.4665 25.7332 31.3331L30.1332 26.9331C30.3999 26.6665 30.3999 26.2665 30.1332 25.9998C29.7332 25.7331 29.3332 25.7331 29.0665 25.9998Z" fill="black"/>
</svg>
