<svg width="40" height="40" viewBox="0 0 40 40" fill="none" xmlns="http://www.w3.org/2000/svg">
<path d="M38.2979 39.9996H0.851064C0.381021 39.9996 0 39.6185 0 39.1486V10.2124C0 9.74235 0.381021 9.36133 0.851064 9.36133H11.0638C11.5338 9.36133 11.9149 9.74235 11.9149 10.2124V15.3188H17.8723C18.3423 15.3188 18.7234 15.6998 18.7234 16.1698V21.2762H24.6809C25.1508 21.2762 25.5319 21.6573 25.5319 22.1273V26.3826H31.4894C31.9593 26.3826 32.3404 26.7637 32.3404 27.2337V31.489H38.2979C38.7678 31.489 39.1489 31.8701 39.1489 32.3401V39.1486C39.1489 39.6185 38.7678 39.9996 38.2979 39.9996ZM1.70213 38.2975H37.4468V33.1911H31.4894C31.0194 33.1911 30.6383 32.81 30.6383 32.3401V28.0847H24.6809C24.2109 28.0847 23.8298 27.7036 23.8298 27.2337V22.9783H17.8723C17.4023 22.9783 17.0213 22.5972 17.0213 22.1273V17.0209H11.0638C10.5938 17.0209 10.2128 16.6399 10.2128 16.1698V11.0635H1.70213V38.2975Z" fill="black"/>
<path d="M38.2979 21.2766H36.5958C36.4086 21.2766 36.2265 21.2148 36.078 21.101L10.7751 1.70213H4.25536C3.78532 1.70213 3.4043 1.32111 3.4043 0.851064C3.4043 0.381021 3.78532 0 4.25536 0H11.0639C11.251 0 11.4331 0.0617872 11.5817 0.17566L36.8846 19.5745H38.2979C38.7679 19.5745 39.149 19.9556 39.149 20.4255C39.149 20.8955 38.7679 21.2766 38.2979 21.2766Z" fill="black"/>
<path d="M31.4897 28.0848C31.0198 28.0848 30.6387 27.7037 30.6387 27.2338V17.021C30.6387 16.5509 31.0198 16.1699 31.4897 16.1699C31.9597 16.1699 32.3408 16.5509 32.3408 17.021V27.2338C32.3408 27.7037 31.9597 28.0848 31.4897 28.0848Z" fill="black"/>
<path d="M24.6811 22.9784C24.2112 22.9784 23.8301 22.5973 23.8301 22.1273V11.9145C23.8301 11.4445 24.2112 11.0635 24.6811 11.0635C25.1511 11.0635 25.5322 11.4445 25.5322 11.9145V22.1273C25.5322 22.5973 25.1511 22.9784 24.6811 22.9784Z" fill="black"/>
<path d="M17.8725 17.0209C17.4025 17.0209 17.0215 16.6398 17.0215 16.1698V6.8081C17.0215 6.33805 17.4025 5.95703 17.8725 5.95703C18.3425 5.95703 18.7236 6.33805 18.7236 6.8081V16.1698C18.7236 16.6398 18.3425 17.0209 17.8725 17.0209Z" fill="black"/>
<path d="M11.064 11.0638C10.5939 11.0638 10.2129 10.6828 10.2129 10.2128V0.851064C10.2129 0.381021 10.5939 0 11.064 0C11.5339 0 11.915 0.381021 11.915 0.851064V10.2128C11.915 10.6828 11.5339 11.0638 11.064 11.0638Z" fill="black"/>
<path d="M24.6809 33.1914H0.851064C0.381021 33.1914 0 32.8103 0 32.3403C0 31.8704 0.381021 31.4893 0.851064 31.4893H24.6809C25.1508 31.4893 25.5319 31.8704 25.5319 32.3403C25.5319 32.8103 25.1508 33.1914 24.6809 33.1914Z" fill="black"/>
</svg>
