<svg width="19" height="19" viewBox="0 0 19 19" fill="none" xmlns="http://www.w3.org/2000/svg">
<path d="M11.049 2.27936C12.188 2.2795 13.3015 2.6174 14.2485 3.25033C15.1955 3.88326 15.9336 4.78279 16.3694 5.83518C16.8052 6.88756 16.9191 8.04555 16.6968 9.16269C16.4745 10.2798 15.9259 11.306 15.1205 12.1114C14.315 12.9167 13.2888 13.4652 12.1716 13.6874C11.0544 13.9095 9.89644 13.7954 8.84411 13.3595C7.79178 12.9236 6.89234 12.1854 6.25953 11.2383C5.62672 10.2912 5.28897 9.17771 5.28897 8.03866C5.28897 7.28228 5.43796 6.5333 5.72744 5.83451C6.01691 5.13571 6.44121 4.50077 6.97608 3.96596C7.51096 3.43115 8.14595 3.00694 8.84478 2.71755C9.54362 2.42816 10.2926 2.27926 11.049 2.27936ZM11.049 6.85905e-06C9.19448 0.000888359 7.39729 0.64284 5.9619 1.8171C4.52651 2.99137 3.54119 4.62573 3.17287 6.44331C2.80455 8.26088 3.07589 10.1499 3.9409 11.7903C4.80592 13.4307 6.21142 14.7217 7.9193 15.4445C9.87745 16.2421 12.071 16.2363 14.0249 15.4283C15.9788 14.6203 17.5358 13.0752 18.3587 11.1275C19.1815 9.17979 19.2041 6.98635 18.4214 5.02217C17.6387 3.058 16.1138 1.48119 14.1769 0.633221C13.1874 0.213965 12.1236 -0.0014011 11.049 6.85905e-06Z" fill="#EF1923"/>
<path d="M4.93399 12.4254L0.790828 16.5685C0.354066 17.0053 0.354066 17.7134 0.790828 18.1502L0.820918 18.1803C1.25768 18.6171 1.96581 18.6171 2.40257 18.1803L6.54574 14.0371C6.9825 13.6004 6.9825 12.8922 6.54574 12.4555L6.51565 12.4254C6.07889 11.9886 5.37076 11.9886 4.93399 12.4254Z" fill="#EF1923"/>
</svg>
