<svg width="55" height="54" viewBox="0 0 55 54" fill="none" xmlns="http://www.w3.org/2000/svg">
<path d="M9.64197 0.740234H45.358C50.6543 0.740234 55 5.08591 55 10.3822V34.555C55 39.8513 50.6543 44.197 45.358 44.197H30.5556L13.716 53.0242V44.197H9.64197C4.34568 44.197 0 39.8513 0 34.555V10.3822C0 5.08591 4.34568 0.740234 9.64197 0.740234ZM45.358 3.99949H9.64197C6.11111 3.99949 3.25926 6.85135 3.25926 10.3822V34.555C3.25926 38.0859 6.11111 40.9378 9.64197 40.9378H16.9753V47.7279L29.7407 40.9378H45.358C48.8889 40.9378 51.7407 38.0859 51.7407 34.555V10.3822C51.7407 6.85135 48.8889 3.99949 45.358 3.99949Z" fill="black"/>
<path d="M16.0261 16.6283C15.2112 16.6283 14.5322 15.9493 14.5322 14.9987C14.5322 14.1839 15.2112 13.5049 16.0261 13.5049H26.2112C27.1619 13.5049 27.8409 14.1839 27.8409 14.9987C27.8409 15.9493 27.1619 16.6283 26.2112 16.6283H16.0261Z" fill="black"/>
<path d="M16.0261 24.0981C15.2112 24.0981 14.5322 23.4191 14.5322 22.4685C14.5322 21.5179 15.2112 20.8389 16.0261 20.8389H38.8409C39.7915 20.8389 40.4705 21.5179 40.4705 22.4685C40.4705 23.4191 39.7915 24.0981 38.8409 24.0981H16.0261Z" fill="black"/>
<path d="M16.0261 31.5669C15.2112 31.5669 14.5322 30.7521 14.5322 29.9372C14.5322 28.9866 15.2112 28.3076 16.0261 28.3076H38.8409C39.7915 28.3076 40.4705 28.9866 40.4705 29.9372C40.4705 30.7521 39.7915 31.5669 38.8409 31.5669H16.0261Z" fill="black"/>
</svg>
