<svg width="20" height="20" viewBox="0 0 20 20" fill="none" xmlns="http://www.w3.org/2000/svg">
<path fill-rule="evenodd" clip-rule="evenodd" d="M9.99964 15.1848C12.8633 15.1848 15.1848 12.8633 15.1848 9.99964C15.1848 7.13594 12.8633 4.81445 9.99964 4.81445C7.13594 4.81445 4.81445 7.13594 4.81445 9.99964C4.81445 12.8633 7.13594 15.1848 9.99964 15.1848ZM6.98079 9.99927C6.98079 8.36001 8.31561 7.02594 9.95487 7.02594C11.5945 7.02594 12.9286 8.36038 12.9286 9.99927C12.9286 11.6393 11.5949 12.9737 9.95487 12.9737C8.31561 12.9737 6.98079 11.6393 6.98079 9.99927Z" fill="black"/>
<path d="M16.6668 4.6293C16.6668 5.34523 16.0864 5.9256 15.3705 5.9256C14.6546 5.9256 14.0742 5.34523 14.0742 4.6293C14.0742 3.91338 14.6546 3.33301 15.3705 3.33301C16.0864 3.33301 16.6668 3.91338 16.6668 4.6293Z" fill="black"/>
<path fill-rule="evenodd" clip-rule="evenodd" d="M5.18518 0C2.32149 0 0 2.32149 0 5.18519V14.8148C0 17.6785 2.32149 20 5.18519 20H14.8148C17.6785 20 20 17.6785 20 14.8148V5.18518C20 2.32149 17.6785 0 14.8148 0H5.18518ZM4.81481 2.22222C3.38297 2.22222 2.22222 3.38297 2.22222 4.81482V15.1852C2.22222 16.617 3.38297 17.7778 4.81482 17.7778H15.1852C16.617 17.7778 17.7778 16.617 17.7778 15.1852V4.81481C17.7778 3.38297 16.617 2.22222 15.1852 2.22222H4.81481Z" fill="black"/>
</svg>
