<svg width="31" height="30" viewBox="0 0 31 30" fill="none" xmlns="http://www.w3.org/2000/svg">
<g clip-path="url(#clip0_80_2858)">
<path d="M15.5 0C7.21566 0 0.5 6.71566 0.5 15C0.5 23.2843 7.21566 30 15.5 30C23.7843 30 30.5 23.2843 30.5 15C30.5 6.71566 23.7843 0 15.5 0Z" fill="#40B3E0"/>
<path d="M22.7989 8.62858L20.1198 22.1364C20.1198 22.1364 19.7451 23.0732 18.7147 22.6236L12.5321 17.8836L10.284 16.797L6.49956 15.523C6.49956 15.523 5.91878 15.3169 5.86253 14.8673C5.8064 14.4176 6.51831 14.1741 6.51831 14.1741L21.5624 8.27257C21.5624 8.27257 22.7989 7.72929 22.7989 8.62858Z" fill="white"/>
<path d="M12.0571 21.9848C12.0571 21.9848 11.8766 21.9679 11.6518 21.2559C11.427 20.544 10.2842 16.797 10.2842 16.797L19.3705 11.0267C19.3705 11.0267 19.8952 10.7082 19.8764 11.0267C19.8764 11.0267 19.9701 11.0828 19.6891 11.3451C19.408 11.6075 12.5511 17.7712 12.5511 17.7712" fill="#D2E5F1"/>
<path d="M14.9024 19.701L12.457 21.9306C12.457 21.9306 12.2658 22.0757 12.0566 21.9848L12.5249 17.8433" fill="#B5CFE4"/>
</g>
<defs>
<clipPath id="clip0_80_2858">
<rect width="30" height="30" fill="white" transform="translate(0.5)"/>
</clipPath>
</defs>
</svg>
