<svg width="102" height="13" viewBox="0 0 102 13" fill="none" xmlns="http://www.w3.org/2000/svg">
<path d="M5.95 11.231C5.21267 11.231 4.52667 11.1096 3.892 10.867C3.26667 10.615 2.72067 10.265 2.254 9.81697C1.79667 9.35964 1.43733 8.83231 1.176 8.23497C0.924 7.62831 0.798 6.96564 0.798 6.24697C0.798 5.52831 0.924 4.87031 1.176 4.27297C1.43733 3.66631 1.79667 3.13897 2.254 2.69097C2.72067 2.23364 3.26667 1.88364 3.892 1.64097C4.51733 1.38897 5.20333 1.26297 5.95 1.26297C6.68733 1.26297 7.36867 1.38897 7.994 1.64097C8.61933 1.88364 9.16067 2.22897 9.618 2.67697C10.0847 3.12497 10.444 3.65231 10.696 4.25897C10.9573 4.86564 11.088 5.52831 11.088 6.24697C11.088 6.96564 10.9573 7.62831 10.696 8.23497C10.444 8.84164 10.0847 9.36897 9.618 9.81697C9.16067 10.265 8.61933 10.615 7.994 10.867C7.36867 11.1096 6.68733 11.231 5.95 11.231ZM5.95 10.307C6.538 10.307 7.07933 10.209 7.574 10.013C8.078 9.80764 8.512 9.52297 8.876 9.15897C9.24933 8.78564 9.53867 8.35631 9.744 7.87097C9.94933 7.37631 10.052 6.83497 10.052 6.24697C10.052 5.65897 9.94933 5.12231 9.744 4.63697C9.53867 4.14231 9.24933 3.71297 8.876 3.34897C8.512 2.97564 8.078 2.69097 7.574 2.49497C7.07933 2.28964 6.538 2.18697 5.95 2.18697C5.362 2.18697 4.816 2.28964 4.312 2.49497C3.808 2.69097 3.36933 2.97564 2.996 3.34897C2.632 3.71297 2.34267 4.14231 2.128 4.63697C1.92267 5.12231 1.82 5.65897 1.82 6.24697C1.82 6.82564 1.92267 7.36231 2.128 7.85697C2.34267 8.35164 2.632 8.78564 2.996 9.15897C3.36933 9.52297 3.808 9.80764 4.312 10.013C4.816 10.209 5.362 10.307 5.95 10.307ZM18.1435 10.671V4.66497H14.6015L14.5175 6.30297C14.4988 6.79764 14.4661 7.28297 14.4195 7.75897C14.3821 8.23497 14.3121 8.67364 14.2095 9.07497C14.1161 9.46697 13.9808 9.78897 13.8035 10.041C13.6261 10.2836 13.3975 10.4236 13.1175 10.461L12.1235 10.279C12.4128 10.2883 12.6508 10.1856 12.8375 9.97097C13.0241 9.74697 13.1688 9.44364 13.2715 9.06097C13.3741 8.67831 13.4488 8.24431 13.4955 7.75897C13.5421 7.26431 13.5795 6.76031 13.6075 6.24697L13.7055 3.79697H19.1375V10.671H18.1435ZM11.8155 12.925V10.279H20.2855V12.925H19.3475V11.147H12.7535V12.925H11.8155ZM22.2226 11.147V3.79697H23.2166V7.04497H27.8506V3.79697H28.8446V11.147H27.8506V7.89897H23.2166V11.147H22.2226ZM34.6939 11.217C33.9845 11.217 33.3452 11.0583 32.7759 10.741C32.2159 10.4143 31.7725 9.97097 31.4459 9.41097C31.1192 8.84164 30.9559 8.19297 30.9559 7.46497C30.9559 6.72764 31.1192 6.07897 31.4459 5.51897C31.7725 4.95897 32.2159 4.52031 32.7759 4.20297C33.3359 3.88564 33.9752 3.72697 34.6939 3.72697C35.4219 3.72697 36.0659 3.88564 36.6259 4.20297C37.1952 4.52031 37.6385 4.95897 37.9559 5.51897C38.2825 6.07897 38.4459 6.72764 38.4459 7.46497C38.4459 8.19297 38.2825 8.84164 37.9559 9.41097C37.6385 9.97097 37.1952 10.4143 36.6259 10.741C36.0565 11.0583 35.4125 11.217 34.6939 11.217ZM34.6939 10.335C35.2259 10.335 35.6972 10.2183 36.1079 9.98497C36.5185 9.74231 36.8405 9.40631 37.0739 8.97697C37.3165 8.53831 37.4379 8.03431 37.4379 7.46497C37.4379 6.88631 37.3165 6.38231 37.0739 5.95297C36.8405 5.52364 36.5185 5.19231 36.1079 4.95897C35.6972 4.71631 35.2305 4.59497 34.7079 4.59497C34.1852 4.59497 33.7185 4.71631 33.3079 4.95897C32.8972 5.19231 32.5705 5.52364 32.3279 5.95297C32.0852 6.38231 31.9639 6.88631 31.9639 7.46497C31.9639 8.03431 32.0852 8.53831 32.3279 8.97697C32.5705 9.40631 32.8972 9.74231 33.3079 9.98497C33.7185 10.2183 34.1805 10.335 34.6939 10.335ZM41.5376 7.78697V7.03097H45.8076V7.78697H41.5376ZM42.5176 3.72697C43.2642 3.72697 43.9316 3.89031 44.5196 4.21697C45.1076 4.53431 45.5696 4.97764 45.9056 5.54697C46.2509 6.10697 46.4236 6.74631 46.4236 7.46497C46.4236 8.18364 46.2509 8.82764 45.9056 9.39697C45.5696 9.96631 45.1076 10.4143 44.5196 10.741C43.9316 11.0676 43.2642 11.231 42.5176 11.231C41.9109 11.231 41.3462 11.1376 40.8236 10.951C40.3102 10.755 39.8762 10.475 39.5216 10.111L40.1096 9.52297C40.4269 9.82164 40.7862 10.0456 41.1876 10.195C41.5889 10.335 42.0182 10.405 42.4756 10.405C43.0542 10.405 43.5676 10.279 44.0156 10.027C44.4729 9.76564 44.8322 9.41564 45.0936 8.97697C45.3549 8.52897 45.4856 8.02497 45.4856 7.46497C45.4856 6.90497 45.3549 6.40564 45.0936 5.96697C44.8322 5.51897 44.4729 5.16897 44.0156 4.91697C43.5676 4.66497 43.0542 4.53897 42.4756 4.53897C42.0182 4.53897 41.5889 4.61364 41.1876 4.76297C40.7862 4.90297 40.4269 5.12231 40.1096 5.42097L39.5216 4.84697C39.8762 4.47364 40.3102 4.19364 40.8236 4.00697C41.3462 3.82031 41.9109 3.72697 42.5176 3.72697ZM49.6402 11.147V4.39897L49.8922 4.66497H46.8542V3.79697H53.4202V4.66497H50.3822L50.6342 4.39897V11.147H49.6402ZM59.4214 11.147V9.52297L59.3794 9.25697V6.54097C59.3794 5.91564 59.202 5.43497 58.8474 5.09897C58.502 4.76297 57.984 4.59497 57.2934 4.59497C56.8174 4.59497 56.3647 4.67431 55.9354 4.83297C55.506 4.99164 55.142 5.20164 54.8434 5.46297L54.3954 4.72097C54.7687 4.40364 55.2167 4.16097 55.7394 3.99297C56.262 3.81564 56.8127 3.72697 57.3914 3.72697C58.3434 3.72697 59.076 3.96497 59.5894 4.44097C60.112 4.90764 60.3734 5.62164 60.3734 6.58297V11.147H59.4214ZM56.8874 11.217C56.3367 11.217 55.856 11.1283 55.4454 10.951C55.044 10.7643 54.736 10.5123 54.5214 10.195C54.3067 9.86831 54.1994 9.49497 54.1994 9.07497C54.1994 8.69231 54.288 8.34697 54.4654 8.03897C54.652 7.72164 54.9507 7.46964 55.3614 7.28297C55.7814 7.08697 56.3414 6.98897 57.0414 6.98897H59.5754V7.73097H57.0694C56.36 7.73097 55.8654 7.85697 55.5854 8.10897C55.3147 8.36097 55.1794 8.67364 55.1794 9.04697C55.1794 9.46697 55.3427 9.80297 55.6694 10.055C55.996 10.307 56.4534 10.433 57.0414 10.433C57.6014 10.433 58.082 10.307 58.4834 10.055C58.894 9.79364 59.1927 9.42031 59.3794 8.93497L59.6034 9.62097C59.4167 10.1063 59.09 10.4936 58.6234 10.783C58.166 11.0723 57.5874 11.217 56.8874 11.217ZM71.7415 11.147L69.2215 7.50697L70.0475 7.01697L72.9315 11.147H71.7415ZM67.5695 7.87097V7.01697H69.8935V7.87097H67.5695ZM70.1455 7.57697L69.1935 7.43697L71.6435 3.79697H72.7215L70.1455 7.57697ZM63.0335 11.147H61.8435L64.7275 7.01697L65.5395 7.50697L63.0335 11.147ZM67.8775 11.147H66.8835V3.79697H67.8775V11.147ZM67.1915 7.87097H64.8815V7.01697H67.1915V7.87097ZM64.6435 7.57697L62.0535 3.79697H63.1315L65.5675 7.43697L64.6435 7.57697ZM74.5859 11.147V3.79697H75.5799V7.04497H80.2139V3.79697H81.2079V11.147H80.2139V7.89897H75.5799V11.147H74.5859ZM91.2011 11.147V3.79697H92.1951V11.147H91.2011ZM87.1271 6.38697C88.0511 6.39631 88.7558 6.60164 89.2411 7.00297C89.7265 7.40431 89.9691 7.98297 89.9691 8.73897C89.9691 9.52297 89.7078 10.125 89.1851 10.545C88.6625 10.965 87.9158 11.1703 86.9451 11.161L84.0331 11.147V3.79697H85.0271V6.35897L87.1271 6.38697ZM86.8751 10.405C87.5658 10.4143 88.0838 10.279 88.4291 9.99897C88.7838 9.70964 88.9611 9.28964 88.9611 8.73897C88.9611 8.18831 88.7885 7.78697 88.4431 7.53497C88.0978 7.27364 87.5751 7.13831 86.8751 7.12897L85.0271 7.10097V10.377L86.8751 10.405ZM95.0253 11.147V3.79697H96.0193V9.63497L100.933 3.79697H101.815V11.147H100.821V5.29497L95.9213 11.147H95.0253ZM98.3573 2.73297C97.7413 2.73297 97.242 2.57897 96.8593 2.27097C96.486 1.95364 96.29 1.50097 96.2713 0.912973H96.9853C96.9947 1.28631 97.1253 1.58031 97.3773 1.79497C97.6293 2.00964 97.956 2.11697 98.3573 2.11697C98.7587 2.11697 99.0853 2.00964 99.3373 1.79497C99.5987 1.58031 99.734 1.28631 99.7433 0.912973H100.457C100.448 1.50097 100.252 1.95364 99.8693 2.27097C99.4867 2.57897 98.9827 2.73297 98.3573 2.73297Z" fill="#282828"/>
</svg>
